<?xml version="1.0" encoding="UTF-8" standalone="no"?>
<svg
   xmlns:dc="http://purl.org/dc/elements/1.1/"
   xmlns:cc="http://creativecommons.org/ns#"
   xmlns:rdf="http://www.w3.org/1999/02/22-rdf-syntax-ns#"
   xmlns:svg="http://www.w3.org/2000/svg"
   xmlns="http://www.w3.org/2000/svg"
   xmlns:xlink="http://www.w3.org/1999/xlink"
   xmlns:sodipodi="http://sodipodi.sourceforge.net/DTD/sodipodi-0.dtd"
   xmlns:inkscape="http://www.inkscape.org/namespaces/inkscape"
   width="210mm"
   height="297mm"
   viewBox="0 0 210 297"
   version="1.1"
   id="svg8"
   sodipodi:docname="grille-de-lecture-des-lignes.svg"
   inkscape:version="1.0.1 (3bc2e813f5, 2020-09-07)"
   inkscape:export-filename="C:\Users\louis\Dropbox\0-Research\sub_lakes\grille-de-lecture-des-lignes.png"
   inkscape:export-xdpi="300"
   inkscape:export-ydpi="300">
  <defs
     id="defs2">
    <linearGradient
       inkscape:collect="always"
       id="linearGradient1310">
      <stop
         style="stop-color:#000000;stop-opacity:1;"
         offset="0"
         id="stop1306" />
      <stop
         style="stop-color:#000000;stop-opacity:0;"
         offset="1"
         id="stop1308" />
    </linearGradient>
    <g
       id="g6393">
      <symbol
         overflow="visible"
         id="symbol5915">
        <path
           style="stroke:none;"
           d=""
           id="path6179" />
      </symbol>
      <symbol
         overflow="visible"
         id="symbol7949">
        <path
           style="stroke:none;"
           d="M 3.734375 -6.125 C 3.796875 -6.359375 3.828125 -6.453125 4.015625 -6.484375 C 4.109375 -6.5 4.421875 -6.5 4.625 -6.5 C 5.328125 -6.5 6.4375 -6.5 6.4375 -5.515625 C 6.4375 -5.171875 6.28125 -4.484375 5.890625 -4.09375 C 5.625 -3.84375 5.109375 -3.515625 4.203125 -3.515625 L 3.09375 -3.515625 Z M 5.171875 -3.390625 C 6.1875 -3.609375 7.359375 -4.3125 7.359375 -5.3125 C 7.359375 -6.171875 6.46875 -6.8125 5.15625 -6.8125 L 2.328125 -6.8125 C 2.125 -6.8125 2.03125 -6.8125 2.03125 -6.609375 C 2.03125 -6.5 2.125 -6.5 2.3125 -6.5 C 2.328125 -6.5 2.515625 -6.5 2.6875 -6.484375 C 2.875 -6.453125 2.953125 -6.453125 2.953125 -6.3125 C 2.953125 -6.28125 2.953125 -6.25 2.921875 -6.125 L 1.578125 -0.78125 C 1.484375 -0.390625 1.46875 -0.3125 0.671875 -0.3125 C 0.5 -0.3125 0.40625 -0.3125 0.40625 -0.109375 C 0.40625 0 0.53125 0 0.546875 0 C 0.828125 0 1.53125 -0.03125 1.796875 -0.03125 C 2.078125 -0.03125 2.796875 0 3.078125 0 C 3.15625 0 3.265625 0 3.265625 -0.203125 C 3.265625 -0.3125 3.1875 -0.3125 2.984375 -0.3125 C 2.625 -0.3125 2.34375 -0.3125 2.34375 -0.484375 C 2.34375 -0.546875 2.359375 -0.59375 2.375 -0.65625 L 3.03125 -3.296875 L 4.21875 -3.296875 C 5.125 -3.296875 5.296875 -2.734375 5.296875 -2.390625 C 5.296875 -2.25 5.21875 -1.9375 5.15625 -1.703125 C 5.09375 -1.421875 5 -1.0625 5 -0.859375 C 5 0.21875 6.203125 0.21875 6.328125 0.21875 C 7.171875 0.21875 7.53125 -0.78125 7.53125 -0.921875 C 7.53125 -1.046875 7.421875 -1.046875 7.40625 -1.046875 C 7.3125 -1.046875 7.296875 -0.984375 7.28125 -0.90625 C 7.03125 -0.171875 6.59375 0 6.375 0 C 6.046875 0 5.96875 -0.21875 5.96875 -0.609375 C 5.96875 -0.921875 6.03125 -1.421875 6.078125 -1.75 C 6.09375 -1.890625 6.109375 -2.078125 6.109375 -2.21875 C 6.109375 -2.984375 5.4375 -3.296875 5.171875 -3.390625 Z M 5.171875 -3.390625 "
           id="path3049" />
      </symbol>
      <symbol
         overflow="visible"
         id="symbol2707">
        <path
           style="stroke:none;"
           d="M 3.71875 -3.765625 C 3.53125 -4.140625 3.25 -4.40625 2.796875 -4.40625 C 1.640625 -4.40625 0.40625 -2.9375 0.40625 -1.484375 C 0.40625 -0.546875 0.953125 0.109375 1.71875 0.109375 C 1.921875 0.109375 2.421875 0.0625 3.015625 -0.640625 C 3.09375 -0.21875 3.453125 0.109375 3.921875 0.109375 C 4.28125 0.109375 4.5 -0.125 4.671875 -0.4375 C 4.828125 -0.796875 4.96875 -1.40625 4.96875 -1.421875 C 4.96875 -1.53125 4.875 -1.53125 4.84375 -1.53125 C 4.75 -1.53125 4.734375 -1.484375 4.703125 -1.34375 C 4.53125 -0.703125 4.359375 -0.109375 3.953125 -0.109375 C 3.671875 -0.109375 3.65625 -0.375 3.65625 -0.5625 C 3.65625 -0.78125 3.671875 -0.875 3.78125 -1.3125 C 3.890625 -1.71875 3.90625 -1.828125 4 -2.203125 L 4.359375 -3.59375 C 4.421875 -3.875 4.421875 -3.890625 4.421875 -3.9375 C 4.421875 -4.109375 4.3125 -4.203125 4.140625 -4.203125 C 3.890625 -4.203125 3.75 -3.984375 3.71875 -3.765625 Z M 3.078125 -1.1875 C 3.015625 -1 3.015625 -0.984375 2.875 -0.8125 C 2.4375 -0.265625 2.03125 -0.109375 1.75 -0.109375 C 1.25 -0.109375 1.109375 -0.65625 1.109375 -1.046875 C 1.109375 -1.546875 1.421875 -2.765625 1.65625 -3.234375 C 1.96875 -3.8125 2.40625 -4.1875 2.8125 -4.1875 C 3.453125 -4.1875 3.59375 -3.375 3.59375 -3.3125 C 3.59375 -3.25 3.578125 -3.1875 3.5625 -3.140625 Z M 3.078125 -1.1875 "
           id="path3135" />
      </symbol>
      <symbol
         overflow="visible"
         id="symbol8247">
        <path
           style="stroke:none;"
           d=""
           id="path9361" />
      </symbol>
      <symbol
         overflow="visible"
         id="symbol1344">
        <path
           style="stroke:none;"
           d="M 2.390625 -2.25 L 3.125 -2.25 C 3.65625 -2.25 3.75 -2.15625 3.75 -1.9375 C 3.75 -1.828125 3.75 -1.8125 3.703125 -1.609375 C 3.6875 -1.578125 3.671875 -1.546875 3.671875 -1.53125 C 3.671875 -1.46875 3.734375 -1.421875 3.796875 -1.421875 C 3.890625 -1.421875 3.890625 -1.46875 3.9375 -1.59375 L 4.3125 -3.0625 C 4.3125 -3.09375 4.328125 -3.1875 4.328125 -3.203125 C 4.328125 -3.28125 4.28125 -3.3125 4.21875 -3.3125 C 4.125 -3.3125 4.109375 -3.265625 4.078125 -3.140625 C 3.9375 -2.59375 3.734375 -2.5 3.140625 -2.5 L 2.453125 -2.5 L 2.890625 -4.25 C 2.9375 -4.453125 2.953125 -4.484375 3.234375 -4.484375 L 4.3125 -4.484375 C 5.234375 -4.484375 5.40625 -4.265625 5.40625 -3.671875 C 5.40625 -3.453125 5.375 -3.296875 5.375 -3.25 C 5.375 -3.1875 5.40625 -3.125 5.5 -3.125 C 5.609375 -3.125 5.609375 -3.1875 5.625 -3.3125 L 5.75 -4.515625 C 5.765625 -4.734375 5.71875 -4.734375 5.546875 -4.734375 L 1.828125 -4.734375 C 1.6875 -4.734375 1.609375 -4.734375 1.609375 -4.578125 C 1.609375 -4.484375 1.6875 -4.484375 1.828125 -4.484375 C 1.828125 -4.484375 1.96875 -4.484375 2.09375 -4.46875 C 2.234375 -4.453125 2.25 -4.4375 2.25 -4.375 C 2.25 -4.328125 2.234375 -4.25 2.21875 -4.21875 L 1.3125 -0.578125 C 1.234375 -0.296875 1.234375 -0.25 0.6875 -0.25 C 0.578125 -0.25 0.484375 -0.25 0.484375 -0.109375 C 0.484375 -0.03125 0.53125 0 0.59375 0 C 0.796875 0 1.3125 -0.03125 1.515625 -0.03125 L 2.046875 -0.015625 C 2.234375 -0.015625 2.421875 0 2.59375 0 C 2.640625 0 2.75 0 2.75 -0.15625 C 2.75 -0.25 2.671875 -0.25 2.515625 -0.25 C 2.5 -0.25 2.328125 -0.25 2.140625 -0.265625 C 2 -0.28125 1.9375 -0.28125 1.9375 -0.390625 C 1.9375 -0.40625 1.9375 -0.4375 1.953125 -0.515625 Z M 2.390625 -2.25 "
           id="path9286" />
      </symbol>
    </g>
    <g
       id="g1682">
      <symbol
         overflow="visible"
         id="symbol4532">
        <path
           style="stroke:none;"
           d=""
           id="path4312" />
      </symbol>
      <symbol
         overflow="visible"
         id="symbol6150">
        <path
           style="stroke:none;"
           d="M 2.9375 -6.375 C 2.9375 -6.625 2.9375 -6.640625 2.703125 -6.640625 C 2.078125 -6 1.203125 -6 0.890625 -6 L 0.890625 -5.6875 C 1.09375 -5.6875 1.671875 -5.6875 2.1875 -5.953125 L 2.1875 -0.78125 C 2.1875 -0.421875 2.15625 -0.3125 1.265625 -0.3125 L 0.953125 -0.3125 L 0.953125 0 C 1.296875 -0.03125 2.15625 -0.03125 2.5625 -0.03125 C 2.953125 -0.03125 3.828125 -0.03125 4.171875 0 L 4.171875 -0.3125 L 3.859375 -0.3125 C 2.953125 -0.3125 2.9375 -0.421875 2.9375 -0.78125 Z M 2.9375 -6.375 "
           id="path2567" />
      </symbol>
      <symbol
         overflow="visible"
         id="symbol2946">
        <path
           style="stroke:none;"
           d="M 4.578125 -3.1875 C 4.578125 -3.984375 4.53125 -4.78125 4.1875 -5.515625 C 3.734375 -6.484375 2.90625 -6.640625 2.5 -6.640625 C 1.890625 -6.640625 1.171875 -6.375 0.75 -5.453125 C 0.4375 -4.765625 0.390625 -3.984375 0.390625 -3.1875 C 0.390625 -2.4375 0.421875 -1.546875 0.84375 -0.78125 C 1.265625 0.015625 2 0.21875 2.484375 0.21875 C 3.015625 0.21875 3.78125 0.015625 4.21875 -0.9375 C 4.53125 -1.625 4.578125 -2.40625 4.578125 -3.1875 Z M 2.484375 0 C 2.09375 0 1.5 -0.25 1.328125 -1.203125 C 1.21875 -1.796875 1.21875 -2.71875 1.21875 -3.3125 C 1.21875 -3.953125 1.21875 -4.609375 1.296875 -5.140625 C 1.484375 -6.328125 2.234375 -6.421875 2.484375 -6.421875 C 2.8125 -6.421875 3.46875 -6.234375 3.65625 -5.25 C 3.765625 -4.6875 3.765625 -3.9375 3.765625 -3.3125 C 3.765625 -2.5625 3.765625 -1.890625 3.65625 -1.25 C 3.5 -0.296875 2.9375 0 2.484375 0 Z M 2.484375 0 "
           id="path9292" />
      </symbol>
      <symbol
         overflow="visible"
         id="symbol9682">
        <path
           style="stroke:none;"
           d=""
           id="path6999" />
      </symbol>
      <symbol
         overflow="visible"
         id="symbol1160">
        <path
           style="stroke:none;"
           d="M 2.46875 -2.515625 C 3.015625 -2.78125 3.359375 -3.109375 3.359375 -3.59375 C 3.359375 -4.265625 2.65625 -4.625 1.984375 -4.625 C 1.21875 -4.625 0.59375 -4.125 0.59375 -3.46875 C 0.59375 -3.140625 0.75 -2.90625 0.875 -2.765625 C 1 -2.609375 1.046875 -2.578125 1.453125 -2.34375 C 1.0625 -2.171875 0.375 -1.796875 0.375 -1.0625 C 0.375 -0.296875 1.171875 0.140625 1.96875 0.140625 C 2.859375 0.140625 3.578125 -0.421875 3.578125 -1.171875 C 3.578125 -1.640625 3.3125 -2.03125 2.90625 -2.265625 C 2.8125 -2.328125 2.578125 -2.453125 2.46875 -2.515625 Z M 1.34375 -3.171875 C 1.15625 -3.28125 0.96875 -3.46875 0.96875 -3.734375 C 0.96875 -4.171875 1.46875 -4.421875 1.96875 -4.421875 C 2.515625 -4.421875 3 -4.078125 3 -3.59375 C 3 -2.96875 2.265625 -2.65625 2.265625 -2.65625 C 2.25 -2.65625 2.234375 -2.65625 2.1875 -2.6875 Z M 1.671875 -2.203125 L 2.640625 -1.65625 C 2.8125 -1.546875 3.15625 -1.34375 3.15625 -0.9375 C 3.15625 -0.40625 2.578125 -0.078125 1.984375 -0.078125 C 1.34375 -0.078125 0.796875 -0.5 0.796875 -1.0625 C 0.796875 -1.578125 1.171875 -1.984375 1.671875 -2.203125 Z M 1.671875 -2.203125 "
           id="path6393" />
      </symbol>
      <symbol
         overflow="visible"
         id="symbol3073">
        <path
           style="stroke:none;"
           d="M 3.734375 -4.203125 C 3.796875 -4.296875 3.796875 -4.3125 3.796875 -4.484375 L 1.96875 -4.484375 C 1.6875 -4.484375 1.609375 -4.5 1.359375 -4.515625 C 1 -4.546875 0.984375 -4.59375 0.96875 -4.703125 L 0.734375 -4.703125 L 0.484375 -3.21875 L 0.71875 -3.21875 C 0.734375 -3.328125 0.8125 -3.78125 0.921875 -3.859375 C 0.96875 -3.890625 1.546875 -3.890625 1.640625 -3.890625 L 3.15625 -3.890625 C 2.9375 -3.609375 2.578125 -3.171875 2.4375 -2.96875 C 1.53125 -1.78125 1.4375 -0.671875 1.4375 -0.265625 C 1.4375 -0.1875 1.4375 0.140625 1.765625 0.140625 C 2.109375 0.140625 2.109375 -0.171875 2.109375 -0.265625 L 2.109375 -0.546875 C 2.109375 -1.890625 2.390625 -2.515625 2.6875 -2.890625 Z M 3.734375 -4.203125 "
           id="path1317" />
      </symbol>
      <symbol
         overflow="visible"
         id="symbol5927">
        <path
           style="stroke:none;"
           d="M 2.90625 -2.078125 C 2.90625 -0.34375 2.0625 -0.078125 1.640625 -0.078125 C 1.484375 -0.078125 1.109375 -0.09375 0.921875 -0.3125 C 1.21875 -0.34375 1.234375 -0.578125 1.234375 -0.640625 C 1.234375 -0.8125 1.109375 -0.96875 0.90625 -0.96875 C 0.703125 -0.96875 0.578125 -0.828125 0.578125 -0.625 C 0.578125 -0.15625 0.96875 0.140625 1.640625 0.140625 C 2.640625 0.140625 3.578125 -0.796875 3.578125 -2.296875 C 3.578125 -4.015625 2.8125 -4.625 2 -4.625 C 1.765625 -4.625 1.296875 -4.59375 0.890625 -4.203125 C 0.65625 -3.96875 0.375 -3.703125 0.375 -3.078125 C 0.375 -2.1875 1.078125 -1.53125 1.890625 -1.53125 C 2.453125 -1.53125 2.75 -1.90625 2.90625 -2.21875 Z M 1.9375 -1.734375 C 1.65625 -1.734375 1.40625 -1.8125 1.203125 -2.140625 C 1.046875 -2.390625 1.046875 -2.6875 1.046875 -3.078125 C 1.046875 -3.484375 1.046875 -3.75 1.25 -4.03125 C 1.421875 -4.28125 1.640625 -4.421875 2 -4.421875 C 2.359375 -4.421875 2.578125 -4.203125 2.6875 -4.015625 C 2.875 -3.734375 2.890625 -3.234375 2.890625 -3 C 2.890625 -2.09375 2.375 -1.734375 1.9375 -1.734375 Z M 1.9375 -1.734375 "
           id="path1609" />
      </symbol>
      <symbol
         overflow="visible"
         id="symbol2901">
        <path
           style="stroke:none;"
           d="M 1.046875 -2.28125 C 1.046875 -2.84375 1.09375 -3.359375 1.359375 -3.796875 C 1.59375 -4.171875 1.96875 -4.421875 2.421875 -4.421875 C 2.625 -4.421875 2.90625 -4.375 3.046875 -4.1875 C 2.875 -4.171875 2.71875 -4.046875 2.71875 -3.84375 C 2.71875 -3.671875 2.84375 -3.515625 3.046875 -3.515625 C 3.265625 -3.515625 3.390625 -3.65625 3.390625 -3.859375 C 3.390625 -4.265625 3.09375 -4.625 2.40625 -4.625 C 1.40625 -4.625 0.375 -3.703125 0.375 -2.203125 C 0.375 -0.40625 1.21875 0.140625 2 0.140625 C 2.84375 0.140625 3.578125 -0.515625 3.578125 -1.421875 C 3.578125 -2.3125 2.875 -2.96875 2.0625 -2.96875 C 1.5 -2.96875 1.203125 -2.59375 1.046875 -2.28125 Z M 2 -0.078125 C 1.640625 -0.078125 1.375 -0.28125 1.21875 -0.59375 C 1.125 -0.796875 1.0625 -1.15625 1.0625 -1.5625 C 1.0625 -2.25 1.46875 -2.765625 2.03125 -2.765625 C 2.34375 -2.765625 2.5625 -2.640625 2.734375 -2.390625 C 2.90625 -2.125 2.90625 -1.828125 2.90625 -1.421875 C 2.90625 -1.03125 2.90625 -0.734375 2.71875 -0.453125 C 2.5625 -0.21875 2.328125 -0.078125 2 -0.078125 Z M 2 -0.078125 "
           id="path1827" />
      </symbol>
    </g>
    <g
       id="g8439">
      <symbol
         overflow="visible"
         id="symbol2586">
        <path
           style="stroke:none;"
           d=""
           id="path7145" />
      </symbol>
      <symbol
         overflow="visible"
         id="symbol8934">
        <path
           style="stroke:none;"
           d="M 3.6875 -6.921875 C 3.625 -7.125 3.5625 -7.140625 3.453125 -7.140625 C 3.296875 -7.140625 3.28125 -7.09375 3.234375 -6.921875 L 1.3125 -1 C 1.21875 -0.703125 1.015625 -0.3125 0.3125 -0.3125 L 0.3125 0 C 0.640625 -0.015625 1.15625 -0.03125 1.25 -0.03125 C 1.53125 -0.03125 2.0625 -0.015625 2.375 0 L 2.375 -0.3125 C 1.828125 -0.3125 1.609375 -0.59375 1.609375 -0.828125 C 1.609375 -0.875 1.609375 -0.90625 1.65625 -1.046875 L 3.15625 -5.6875 L 4.71875 -0.78125 C 4.78125 -0.640625 4.78125 -0.625 4.78125 -0.609375 C 4.78125 -0.3125 4.1875 -0.3125 3.921875 -0.3125 L 3.921875 0 C 4.28125 -0.03125 4.984375 -0.03125 5.359375 -0.03125 C 5.75 -0.03125 6.203125 -0.015625 6.59375 0 L 6.59375 -0.3125 C 5.828125 -0.3125 5.796875 -0.375 5.6875 -0.734375 Z M 3.6875 -6.921875 "
           id="path2718" />
      </symbol>
      <symbol
         overflow="visible"
         id="symbol1536">
        <path
           style="stroke:none;"
           d="M 4.578125 -3.1875 C 4.578125 -3.984375 4.53125 -4.78125 4.1875 -5.515625 C 3.734375 -6.484375 2.90625 -6.640625 2.5 -6.640625 C 1.890625 -6.640625 1.171875 -6.375 0.75 -5.453125 C 0.4375 -4.765625 0.390625 -3.984375 0.390625 -3.1875 C 0.390625 -2.4375 0.421875 -1.546875 0.84375 -0.78125 C 1.265625 0.015625 2 0.21875 2.484375 0.21875 C 3.015625 0.21875 3.78125 0.015625 4.21875 -0.9375 C 4.53125 -1.625 4.578125 -2.40625 4.578125 -3.1875 Z M 2.484375 0 C 2.09375 0 1.5 -0.25 1.328125 -1.203125 C 1.21875 -1.796875 1.21875 -2.71875 1.21875 -3.3125 C 1.21875 -3.953125 1.21875 -4.609375 1.296875 -5.140625 C 1.484375 -6.328125 2.234375 -6.421875 2.484375 -6.421875 C 2.8125 -6.421875 3.46875 -6.234375 3.65625 -5.25 C 3.765625 -4.6875 3.765625 -3.9375 3.765625 -3.3125 C 3.765625 -2.5625 3.765625 -1.890625 3.65625 -1.25 C 3.5 -0.296875 2.9375 0 2.484375 0 Z M 2.484375 0 "
           id="path4053" />
      </symbol>
      <symbol
         overflow="visible"
         id="symbol7835">
        <path
           style="stroke:none;"
           d="M 2.9375 -6.375 C 2.9375 -6.625 2.9375 -6.640625 2.703125 -6.640625 C 2.078125 -6 1.203125 -6 0.890625 -6 L 0.890625 -5.6875 C 1.09375 -5.6875 1.671875 -5.6875 2.1875 -5.953125 L 2.1875 -0.78125 C 2.1875 -0.421875 2.15625 -0.3125 1.265625 -0.3125 L 0.953125 -0.3125 L 0.953125 0 C 1.296875 -0.03125 2.15625 -0.03125 2.5625 -0.03125 C 2.953125 -0.03125 3.828125 -0.03125 4.171875 0 L 4.171875 -0.3125 L 3.859375 -0.3125 C 2.953125 -0.3125 2.9375 -0.421875 2.9375 -0.78125 Z M 2.9375 -6.375 "
           id="path4849" />
      </symbol>
      <symbol
         overflow="visible"
         id="symbol7916">
        <path
           style="stroke:none;"
           d="M 5.515625 -6.78125 L 0.328125 -6.78125 L 0.328125 -6.46875 L 0.5625 -6.46875 C 1.328125 -6.46875 1.359375 -6.359375 1.359375 -6 L 1.359375 -0.78125 C 1.359375 -0.421875 1.328125 -0.3125 0.5625 -0.3125 L 0.328125 -0.3125 L 0.328125 0 C 0.671875 -0.03125 1.453125 -0.03125 1.84375 -0.03125 C 2.25 -0.03125 3.15625 -0.03125 3.515625 0 L 3.515625 -0.3125 L 3.1875 -0.3125 C 2.25 -0.3125 2.25 -0.4375 2.25 -0.78125 L 2.25 -6.078125 C 2.25 -6.40625 2.265625 -6.46875 2.734375 -6.46875 L 3.765625 -6.46875 C 5.1875 -6.46875 5.390625 -5.875 5.546875 -4.53125 L 5.796875 -4.53125 Z M 5.515625 -6.78125 "
           id="path8379" />
      </symbol>
      <symbol
         overflow="visible"
         id="symbol7177">
        <path
           style="stroke:none;"
           d="M 2.9375 -1.640625 L 2.9375 -0.78125 C 2.9375 -0.421875 2.90625 -0.3125 2.171875 -0.3125 L 1.96875 -0.3125 L 1.96875 0 C 2.375 -0.03125 2.890625 -0.03125 3.3125 -0.03125 C 3.734375 -0.03125 4.25 -0.03125 4.671875 0 L 4.671875 -0.3125 L 4.453125 -0.3125 C 3.71875 -0.3125 3.703125 -0.421875 3.703125 -0.78125 L 3.703125 -1.640625 L 4.6875 -1.640625 L 4.6875 -1.953125 L 3.703125 -1.953125 L 3.703125 -6.484375 C 3.703125 -6.6875 3.703125 -6.75 3.53125 -6.75 C 3.453125 -6.75 3.421875 -6.75 3.34375 -6.625 L 0.28125 -1.953125 L 0.28125 -1.640625 Z M 2.984375 -1.953125 L 0.5625 -1.953125 L 2.984375 -5.671875 Z M 2.984375 -1.953125 "
           id="path768" />
      </symbol>
      <symbol
         overflow="visible"
         id="symbol2524">
        <path
           style="stroke:none;"
           d="M 1.625 -4.5625 C 1.171875 -4.859375 1.125 -5.1875 1.125 -5.359375 C 1.125 -5.96875 1.78125 -6.390625 2.484375 -6.390625 C 3.203125 -6.390625 3.84375 -5.875 3.84375 -5.15625 C 3.84375 -4.578125 3.453125 -4.109375 2.859375 -3.765625 Z M 3.078125 -3.609375 C 3.796875 -3.984375 4.28125 -4.5 4.28125 -5.15625 C 4.28125 -6.078125 3.40625 -6.640625 2.5 -6.640625 C 1.5 -6.640625 0.6875 -5.90625 0.6875 -4.96875 C 0.6875 -4.796875 0.703125 -4.34375 1.125 -3.875 C 1.234375 -3.765625 1.609375 -3.515625 1.859375 -3.34375 C 1.28125 -3.046875 0.421875 -2.5 0.421875 -1.5 C 0.421875 -0.453125 1.4375 0.21875 2.484375 0.21875 C 3.609375 0.21875 4.5625 -0.609375 4.5625 -1.671875 C 4.5625 -2.03125 4.453125 -2.484375 4.0625 -2.90625 C 3.875 -3.109375 3.71875 -3.203125 3.078125 -3.609375 Z M 2.078125 -3.1875 L 3.3125 -2.40625 C 3.59375 -2.21875 4.0625 -1.921875 4.0625 -1.3125 C 4.0625 -0.578125 3.3125 -0.0625 2.5 -0.0625 C 1.640625 -0.0625 0.921875 -0.671875 0.921875 -1.5 C 0.921875 -2.078125 1.234375 -2.71875 2.078125 -3.1875 Z M 2.078125 -3.1875 "
           id="path6565" />
      </symbol>
      <symbol
         overflow="visible"
         id="symbol4509">
        <path
           style="stroke:none;"
           d="M 1.3125 -3.265625 L 1.3125 -3.515625 C 1.3125 -6.03125 2.546875 -6.390625 3.0625 -6.390625 C 3.296875 -6.390625 3.71875 -6.328125 3.9375 -5.984375 C 3.78125 -5.984375 3.390625 -5.984375 3.390625 -5.546875 C 3.390625 -5.234375 3.625 -5.078125 3.84375 -5.078125 C 4 -5.078125 4.3125 -5.171875 4.3125 -5.5625 C 4.3125 -6.15625 3.875 -6.640625 3.046875 -6.640625 C 1.765625 -6.640625 0.421875 -5.359375 0.421875 -3.15625 C 0.421875 -0.484375 1.578125 0.21875 2.5 0.21875 C 3.609375 0.21875 4.5625 -0.71875 4.5625 -2.03125 C 4.5625 -3.296875 3.671875 -4.25 2.5625 -4.25 C 1.890625 -4.25 1.515625 -3.75 1.3125 -3.265625 Z M 2.5 -0.0625 C 1.875 -0.0625 1.578125 -0.65625 1.515625 -0.8125 C 1.328125 -1.28125 1.328125 -2.078125 1.328125 -2.25 C 1.328125 -3.03125 1.65625 -4.03125 2.546875 -4.03125 C 2.71875 -4.03125 3.171875 -4.03125 3.484375 -3.40625 C 3.65625 -3.046875 3.65625 -2.53125 3.65625 -2.046875 C 3.65625 -1.5625 3.65625 -1.0625 3.484375 -0.703125 C 3.1875 -0.109375 2.734375 -0.0625 2.5 -0.0625 Z M 2.5 -0.0625 "
           id="path730" />
      </symbol>
    </g>
    <linearGradient
       inkscape:collect="always"
       xlink:href="#linearGradient1310"
       id="linearGradient1312"
       x1="158.80098"
       y1="124.53378"
       x2="158.80098"
       y2="100.47952"
       gradientUnits="userSpaceOnUse"
       gradientTransform="translate(-0.9449407,-26.320526)" />
  </defs>
  <sodipodi:namedview
     id="base"
     pagecolor="#ffffff"
     bordercolor="#666666"
     borderopacity="1.0"
     inkscape:pageopacity="0.0"
     inkscape:pageshadow="2"
     inkscape:zoom="1.979899"
     inkscape:cx="396.39389"
     inkscape:cy="321.54742"
     inkscape:document-units="mm"
     inkscape:current-layer="layer1"
     inkscape:document-rotation="0"
     showgrid="false"
     inkscape:window-width="1816"
     inkscape:window-height="1208"
     inkscape:window-x="224"
     inkscape:window-y="125"
     inkscape:window-maximized="0"
     showguides="false" />
  <metadata
     id="metadata5">
    <rdf:RDF>
      <cc:Work
         rdf:about="">
        <dc:format>image/svg+xml</dc:format>
        <dc:type
           rdf:resource="http://purl.org/dc/dcmitype/StillImage" />
        <dc:title></dc:title>
      </cc:Work>
    </rdf:RDF>
  </metadata>
  <g
     inkscape:label="Calque 1"
     inkscape:groupmode="layer"
     id="layer1">
    <g
       id="g1350"
       transform="translate(-37.797619,-25.702381)"
       inkscape:export-xdpi="300"
       inkscape:export-ydpi="300">
      <rect
         style="fill:#d21f20;fill-opacity:1;stroke:none;stroke-width:0.4"
         id="rect847"
         width="2.80633"
         height="6.0135641"
         x="142.19852"
         y="74.210167" />
      <rect
         style="fill:#29914a;fill-opacity:1;stroke:none;stroke-width:0.4"
         id="rect847-5"
         width="2.80633"
         height="6.0135641"
         x="142.19852"
         y="80.223732" />
      <rect
         style="fill:#de4e05;fill-opacity:1;stroke:none;stroke-width:0.4"
         id="rect847-5-4"
         width="2.80633"
         height="6.0135641"
         x="142.19852"
         y="86.237297" />
      <rect
         style="fill:#2777b8;fill-opacity:1;stroke:none;stroke-width:0.4"
         id="rect847-5-4-1"
         width="2.80633"
         height="6.0135641"
         x="142.19852"
         y="92.250862" />
      <g
         inkscape:label=""
         transform="matrix(0.42174162,0,0,0.42174162,101.20401,38.17315)"
         id="g920">
        <g
           id="g1543">
          <g
             style="fill:#000000;fill-opacity:1"
             id="g205">
            <use
               xlink:href="#symbol7949"
               x="91.925003"
               y="81.962997"
               id="use6592"
               width="100%"
               height="100%" />
          </g>
          <g
             style="fill:#000000;fill-opacity:1"
             id="g895">
            <use
               xlink:href="#symbol2707"
               x="99.569305"
               y="81.962997"
               id="use4180"
               width="100%"
               height="100%" />
          </g>
          <g
             style="fill:#000000;fill-opacity:1"
             id="g9297">
            <use
               xlink:href="#symbol1344"
               x="104.833"
               y="83.457001"
               id="use7920"
               width="100%"
               height="100%" />
          </g>
        </g>
      </g>
      <g
         id="g1119"
         transform="matrix(0.42174162,0,0,0.42174162,83.746954,46.3261)">
        <g
           style="fill:#000000;fill-opacity:1"
           id="g6283"
           transform="translate(55.632524,8.6968952)">
          <use
             xlink:href="#symbol6150"
             x="91.925003"
             y="81.962997"
             id="use2629"
             width="100%"
             height="100%" />
          <use
             xlink:href="#symbol2946"
             x="96.906303"
             y="81.962997"
             id="use8998"
             width="100%"
             height="100%" />
        </g>
        <g
           style="fill:#000000;fill-opacity:1"
           id="g1116"
           transform="translate(55.632524,8.6968952)">
          <use
             xlink:href="#symbol1160"
             x="101.888"
             y="78.348"
             id="use2592"
             width="100%"
             height="100%" />
        </g>
      </g>
      <g
         id="g1112"
         transform="matrix(0.42174162,0,0,0.42174162,76.260058,52.339049)">
        <g
           style="fill:#000000;fill-opacity:1"
           id="g5823"
           transform="translate(55.632524,8.6968952)">
          <use
             xlink:href="#symbol6150"
             x="109.678"
             y="81.962997"
             id="use3530"
             width="100%"
             height="100%" />
          <use
             xlink:href="#symbol2946"
             x="114.6593"
             y="81.962997"
             id="use4173"
             width="100%"
             height="100%" />
        </g>
        <g
           style="fill:#000000;fill-opacity:1"
           id="g2504"
           transform="translate(55.632524,8.6968952)">
          <use
             xlink:href="#symbol3073"
             x="119.641"
             y="78.348"
             id="use8848"
             width="100%"
             height="100%" />
        </g>
      </g>
      <g
         id="g1105"
         transform="matrix(0.42174162,0,0,0.42174162,68.772879,40.6131)">
        <g
           style="fill:#000000;fill-opacity:1"
           id="g548"
           transform="translate(55.632524,8.6968952)">
          <use
             xlink:href="#symbol6150"
             x="127.431"
             y="81.962997"
             id="use4551"
             width="100%"
             height="100%" />
          <use
             xlink:href="#symbol2946"
             x="132.41229"
             y="81.962997"
             id="use7903"
             width="100%"
             height="100%" />
        </g>
        <g
           style="fill:#000000;fill-opacity:1"
           id="g9465"
           transform="translate(55.632524,8.6968952)">
          <use
             xlink:href="#symbol5927"
             x="137.394"
             y="78.348"
             id="use4926"
             width="100%"
             height="100%" />
        </g>
      </g>
      <g
         id="g1098"
         transform="matrix(0.42174162,0,0,0.42174162,61.285698,58.385746)">
        <g
           style="fill:#000000;fill-opacity:1"
           id="g3636"
           transform="translate(55.632524,8.6968952)">
          <use
             xlink:href="#symbol6150"
             x="145.18401"
             y="81.962997"
             id="use8204"
             width="100%"
             height="100%" />
          <use
             xlink:href="#symbol2946"
             x="150.1653"
             y="81.962997"
             id="use2090"
             width="100%"
             height="100%" />
        </g>
        <g
           style="fill:#000000;fill-opacity:1"
           id="g9706"
           transform="translate(55.632524,8.6968952)">
          <use
             xlink:href="#symbol2901"
             x="155.147"
             y="78.348"
             id="use8638"
             width="100%"
             height="100%" />
        </g>
      </g>
    </g>
    <rect
       style="fill:none;fill-opacity:1;stroke:#000000;stroke-width:0.1;stroke-miterlimit:4;stroke-dasharray:none"
       id="rect1361-7"
       width="2.8063366"
       height="24.05426"
       x="104.4009"
       y="48.507786"
       inkscape:export-xdpi="300"
       inkscape:export-ydpi="300" />
    <g
       id="g1425"
       transform="translate(-38.855952,-25.702381)"
       inkscape:export-xdpi="300"
       inkscape:export-ydpi="300">
      <g
         style="fill:#000000;fill-opacity:1"
         id="g6074"
         transform="matrix(0.42174162,0,0,0.42174162,116.32021,38.311291)">
        <use
           xlink:href="#symbol8934"
           x="91.925003"
           y="81.962997"
           id="use9404"
           width="100%"
           height="100%" />
      </g>
      <g
         style="fill:#000000;fill-opacity:1"
         id="g4482"
         transform="matrix(0.42174162,0,0,0.42174162,115.38477,63.554964)">
        <use
           xlink:href="#symbol1536"
           x="102.16058"
           y="81.962997"
           id="use3026"
           width="100%"
           height="100%" />
      </g>
      <g
         style="fill:#000000;fill-opacity:1"
         id="g4832"
         transform="matrix(0.42174162,0,0,0.42174162,112.11072,42.403067)">
        <use
           xlink:href="#symbol7835"
           x="110.46938"
           y="81.962997"
           id="use8474"
           width="100%"
           height="100%" />
      </g>
      <rect
         style="fill:url(#linearGradient1312);fill-opacity:1;stroke:none;stroke-width:0.8"
         id="rect847-6"
         width="2.80633"
         height="24.054256"
         x="155.0497"
         y="74.158997" />
      <rect
         style="fill:none;fill-opacity:1;stroke:#000000;stroke-width:0.1;stroke-miterlimit:4;stroke-dasharray:none"
         id="rect1361-7-8"
         width="2.8063369"
         height="24.05426"
         x="155.0497"
         y="74.158997" />
    </g>
    <rect
       style="fill:none;stroke:none;stroke-width:0.372324"
       id="rect2130"
       width="22.201574"
       height="14.049586"
       x="101.89044"
       y="73.781929" />
  </g>
</svg>
